<svg xmlns="http://www.w3.org/2000/svg" xml:space="preserve" viewBox="0 29 1078 1021"><path d="M169.89 37.08c48.61-10.12 98.85-9.78 147.99-3.99 0 51.53.01 103.05 0 154.58-22.55-2.2-45.37-2.69-67.87.23-28.24 3.66-57.03 13.11-77.9 33.26-18.57 17.55-28.29 42.74-30.41 67.87-3.06 35.2 4.98 70.3 15.93 103.55 9.66 28.87 22.1 56.75 35.87 83.88 33.83 66.16 75.21 128.16 118.97 188.1 1.43 2.38 4.2 4.37 4.01 7.39-.03 54.09.01 108.19-.02 162.28-93.37-86.93-172.82-189.38-230.21-303.49C60.86 480.21 38.3 428.08 21.92 373.9 9.68 333.15 1.11 291.04 0 248.4v-10.88c.58-27.76 4.7-55.7 14.83-81.65 10.98-28.65 29.59-54.34 53.58-73.49 29.21-23.55 65.03-37.6 101.48-45.3m161.88-3.31c52.85 52.81 105.65 105.66 158.5 158.47.05 85.79.03 171.57.01 257.36 143.8-83.12 287.67-166.11 431.5-249.16-19.33 72.17-38.69 144.34-58.01 216.52-124.46 71.93-248.99 143.71-373.44 215.66-.1 136.43 0 272.87-.05 409.3-52.85-53.28-105.69-106.58-158.51-159.9q-.015-424.125 0-848.25" style="fill:#01ccfe;fill-opacity:1"/><path d="M361.42 39.96c56.81 10.8 111.71 29.89 164.67 52.86 74.02 32.28 144.7 72.1 211.12 118 20.45 14.17 40.48 28.96 60.01 44.38-44.19 25.78-88.41 51.5-132.6 77.27-30.91-20.58-62.65-39.88-94.95-58.19-20.47-11.35-41.3-22.04-62.64-31.64-.07-17.24 0-34.49-.04-51.73-48.51-50.32-97.07-100.61-145.57-150.95m535.3 304.47c39.71 40.62 75.71 85.08 105.4 133.58 23.6 38.66 43.1 79.96 56.33 123.33 18.11 58.9 23.82 121.7 15.22 182.78-7.91 66.56-46.68 128.16-102.02 165.64-35.25 24.16-77.01 38.4-119.56 41.73-42.76 3.47-85.94-3.73-126.24-18.07-40.34-14.38-78.01-35.6-112.66-60.65-40.44-29.29-76.99-63.68-110.37-100.74.01-56.39 0-112.78.01-169.17 17.22-10.61 34.47-21.18 51.72-31.74 23.54 27.23 49.36 52.65 78.28 74.16 25.76 19.04 54.19 35.15 85.23 43.72 20.33 5.65 41.73 7.76 62.73 5.28 32.4-3.3 61.8-22.56 81.01-48.39 17.43-23.37 25.62-53.04 23.86-82.04-1.66-30.94-13.11-60.53-28.45-87.15-12.14-20.87-26.71-40.28-42.77-58.27 20.15-11.62 40.73-22.55 61.05-33.89 7.1-26.7 14.11-53.42 21.23-80.11M504.18 899.07c45.62 51.22 92.43 101.36 139.79 150.98-17.64-5.69-34.27-14.08-50.93-22.11-30.42-15.16-60.02-31.95-88.86-49.91 0-26.32-.01-52.64 0-78.96" style="display:inline;fill:#01ccfe;fill-opacity:1"/></svg>