<svg xmlns="http://www.w3.org/2000/svg" viewBox="0.00 0.00 1000.00 454.00"><path fill="none" stroke="#c19e75" stroke-width="2.00" d="M927.74 182.02c-13.09 4.74-22.4 13.12-29.8 24.89" vector-effect="non-scaling-stroke"/><path fill="#c19e75" d="M142.22 48.93q-.59 1.14.38.29c27.5-24.25 62.22-29.13 97.17-20.45q36.2 8.99 67.56 30.89.47.32-.09.39l-41.13 5.4q-1.56.2-.08.73c23.16 8.27 43.5 24.76 59.63 43.66q29.63 34.72 48.28 78.92.27.63-.37.37l-49.03-20.39q-1.06-.44-.35.46c18.89 23.8 36.02 53.81 35.9 85.04-.11 25.85-13.67 48.65-35.1 62.85a.33.33 0 0 1-.51-.32l3.38-28.82q.1-.87-.4-.15-3.53 5.09-7.49 9.43c-17.26 18.89-38.78 39.15-53.02 52.94-23.14 22.42-42.36 57.91-30.3 90.85q.24.66-.37.32c-16.62-9.08-32.12-13.02-54.32-19.49q-33.9-9.89-62.79-25.73c-20.49-11.24-39.44-31.93-41.62-56.32q-.23-2.55.73-7 8.17-38.06 14.25-66.2.31-1.4-.5-.21l-18.96 28.15a.31.3 35.7 0 1-.44.07l-46.14-34.5a.98.98 0 0 1-.39-.91l2.67-22.71a2.14 2.08 32.5 0 0-.32-1.36l-13.51-21.09q-.76-1.19-2.02-1.83l-7.76-3.96q-.57-.29-.71-.92l-1.91-8.58q-.11-.52.3-.86l48.32-40.07q1.79-1.48.4.38l-27.91 37.31q-.42.56.28.49l27.61-3.07q1.17-.12.22.55L28.9 209.84q-.45.32-.15.79l11.41 17.81a.66.49 74 0 0 .34.26l36.17 8.35q.61.14 1.05-.31l18.99-18.98a.47.43-44.6 0 0 .03-.62l-20.21-21.9q-.58-.63.27-.56 39.23 3.58 42.45 3.84.75.06 3.07-.97 26.74-11.83 26.84-42.27.01-1.04-.92-1.52L119.7 139.2q-.65-.34.08-.41l25.96-2.68q.66-.07.14-.48l-28.79-23.25a.76.73 60 0 0-.56-.16l-39.5 5.19q-.5.06-.82.46l-16.94 20.97q-.8 1-.58-.27l3.34-19.12a1.15 1.12 27 0 0-.34-1.01l-9.51-9.02a1.24 1.24 0 0 1-.37-1.07q1.9-12.62 2.23-15.17.51-3.97 2.08-6.79c8.45-15.16 20.96-27.19 35.41-37.37q31.1-21.9 68.51-36.32.83-.32.43.47zm32.97 27.64 65.27-27.99q1.34-.57-.02-1.11c-49.5-19.57-101.28 4.62-137.76 38.59q-1.04.97-.47-.33l18.3-41.62q.52-1.2-.47-.35L67.35 89.19a2.26 2.22 75.2 0 0-.75 1.32l-1.77 10.13q-.11.64.3 1.14l5.94 7.16a.51.49-25 0 0 .5.17l40.13-8.92a6.15 6 20.8 0 0 2.18-.95L159 68.12q1.31-.91.39.4l-23.06 32.86q-.48.68.32.48l57.87-14.3q.43-.11.39.33l-1.33 18.94q-.06.78.51 1.33l61.28 58.13q1.7 1.61-.29.38l-65.82-40.65q-.52-.32-.76.24l-5.12 11.64q-.82 1.87-.86-.17l-.67-35.02q-.01-.54-.49-.3l-31.12 15.56a.34.33-37 0 0-.08.55c8.73 7.92 18.31 17.16 24.16 27.32a.41.41 0 0 1-.35.61h-15.45q-1.02 0-.19.58c26.64 18.92 45.18 47.97 54.14 79.33q.23.82-.42.27l-48.82-40.95q-.27-.23-.36.11l-30.31 113.82q-.38 1.43-.66-.02l-10.22-52.63q-.23-1.19-.76-.1c-9.95 20.67-17.66 43.86-18.26 66.65-.58 21.79 14.36 43.55 30.85 56.83q17.83 14.35 41.56 21.9a.09.09 0 0 0 .08-.16c-15.26-11.46-25.14-29.12-27.01-48.19q-1.7-17.27 2.37-31.9 8.2-29.53 24.81-87.87.53-1.88.63.08 2.44 49.32 4.55 92.32.67 13.74 1.75 19.89 3.14 18.05 11.64 33.21 3.24 5.76 8.21 14.29a.24.24 0 0 0 .43-.03q24.85-59.53 42.73-102.23 5.15-12.3 6.29-18.24c7.94-41.69-18.73-77.12-49.46-101.23a.3.19 38.5 0 1-.12-.34v-.01q.11-.14.25-.06 25.11 14.61 41.5 23.99c4.32 2.47 6.82 4.74 10.19 8.32 20.73 22.05 31.03 51.33 26.48 81.34q-3.23 21.28-13.82 40.83-.79 1.47.52.43c15.15-11.99 28.41-28.44 34.81-46.69 10.59-30.19-.9-57.88-21.51-80.67q-1.46-1.63.42-.51c18.9 11.26 34.42 29.96 44.75 48.94q.81 1.5.94-.2c3.55-47.6-32.45-90.26-69.22-115.09q-2.54-1.72.38-.77l75.75 24.47a.23.23 0 0 0 .25-.36c-34.48-44.76-90.4-83.15-149.82-70.82q-7.07 1.46-8.6 1.77a.1.09-61.6 0 1-.05-.18M743.86 126.32c45 .02 85.76 36.28 85.74 82.58s-40.81 82.54-85.81 82.52-85.76-36.29-85.74-82.59 40.81-82.53 85.81-82.51m-.06 128.91a46.34 44.83 89.9 0 0 44.75-46.418 46.34 44.83 89.9 0 0-44.91-46.262 46.34 44.83 89.9 0 0-44.75 46.418 46.34 44.83 89.9 0 0 44.91 46.262M546.78 253.53v34.7a.42.42 0 0 1-.42.42H430.88a.42.42 0 0 1-.42-.42v-158.7a.42.42 0 0 1 .42-.42h38.62a.42.42 0 0 1 .42.42v123.16a.42.42 0 0 0 .42.42h76.02a.42.42 0 0 1 .42.42M627.88 129.12h43.41a.34.34 0 0 1 .3.51l-61.45 103.94a.34.34 0 0 0-.05.17v54.57a.34.34 0 0 1-.34.34h-39.3a.34.34 0 0 1-.34-.34v-54.58a.34.34 0 0 0-.05-.17l-61.44-103.93a.34.34 0 0 1 .3-.51h45.05a.34.34 0 0 1 .3.18l35.55 66.56a.34.34 0 0 0 .59.01l37.17-66.58a.34.34 0 0 1 .3-.17M927.74 182.02c-13.09 4.74-22.4 13.12-29.8 24.89l-8.67-11.84q-.47-.64-.47.15v93.08a.35.35 0 0 1-.35.35h-39.04a.35.35 0 0 1-.35-.35V129.53a.41.41 0 0 1 .41-.41h38.93a.75.73-17.7 0 1 .6.3z"/><path fill="#c19e75" d="M897.94 206.91c7.4-11.77 16.71-20.15 29.8-24.89l29.95 40.67q.48.66.48-.16v-93.05a.37.36 0 0 1 .37-.36h38.69q.61 0 .61.61v158.55a.37.37 0 0 1-.37.37h-38.76a1.08 1.07-17.8 0 1-.87-.44zM79.44 157.18 68.19 182.2q-.95 2.13-.72-.19 1.68-16.9 2.09-20.97.48-4.7-.18-7-.87-3.02-1.96-6.92a.54.54 0 0 1 .56-.68l35.28 2.49q1.92.14.07.69l-23.08 6.86a1.26 1.26 0 0 0-.81.7"/></svg>